<mxfile host="Electron" modified="2024-07-04T16:07:55.494Z" agent="Mozilla/5.0 (Windows NT 10.0; Win64; x64) AppleWebKit/537.36 (KHTML, like Gecko) draw.io/21.7.5 Chrome/114.0.5735.289 Electron/25.8.1 Safari/537.36" etag="XBVrvJmJAXKkllVIQmkg" version="21.7.5" type="device">
  <diagram id="C5RBs43oDa-KdzZeNtuy" name="Page-1">
    <mxGraphModel dx="3605" dy="992" grid="1" gridSize="10" guides="1" tooltips="1" connect="1" arrows="1" fold="1" page="1" pageScale="1" pageWidth="827" pageHeight="1169" math="0" shadow="0">
      <root>
        <mxCell id="WIyWlLk6GJQsqaUBKTNV-0" />
        <mxCell id="WIyWlLk6GJQsqaUBKTNV-1" parent="WIyWlLk6GJQsqaUBKTNV-0" />
        <mxCell id="Q6MB9IUESqZdPa3uwSPV-0" value="Vendedor" style="swimlane;whiteSpace=wrap;html=1;fillColor=#40E6FF;" parent="WIyWlLk6GJQsqaUBKTNV-1" vertex="1">
          <mxGeometry x="-640" y="10" width="390" height="960" as="geometry" />
        </mxCell>
        <mxCell id="x7P05nAlflOO5RNB0M42-3" value="Resepciona pedido" style="rounded=0;whiteSpace=wrap;html=1;" vertex="1" parent="Q6MB9IUESqZdPa3uwSPV-0">
          <mxGeometry x="80" y="160" width="130" height="60" as="geometry" />
        </mxCell>
        <mxCell id="x7P05nAlflOO5RNB0M42-34" value="Boleta/Factura" style="rounded=0;whiteSpace=wrap;html=1;" vertex="1" parent="Q6MB9IUESqZdPa3uwSPV-0">
          <mxGeometry x="155" y="400" width="130" height="60" as="geometry" />
        </mxCell>
        <mxCell id="x7P05nAlflOO5RNB0M42-65" value="Modalidad de pago" style="rounded=0;whiteSpace=wrap;html=1;" vertex="1" parent="Q6MB9IUESqZdPa3uwSPV-0">
          <mxGeometry x="140" y="670" width="130" height="60" as="geometry" />
        </mxCell>
        <mxCell id="x7P05nAlflOO5RNB0M42-86" value="registra pago" style="rounded=0;whiteSpace=wrap;html=1;" vertex="1" parent="Q6MB9IUESqZdPa3uwSPV-0">
          <mxGeometry x="140" y="790" width="130" height="60" as="geometry" />
        </mxCell>
        <mxCell id="Q6MB9IUESqZdPa3uwSPV-1" value="Cliente" style="swimlane;whiteSpace=wrap;html=1;fillColor=#C6FF54;" parent="WIyWlLk6GJQsqaUBKTNV-1" vertex="1">
          <mxGeometry x="-1050" y="10" width="410" height="960" as="geometry" />
        </mxCell>
        <mxCell id="x7P05nAlflOO5RNB0M42-1" value="Cliente realiza pedido" style="ellipse;whiteSpace=wrap;html=1;aspect=fixed;fillColor=#B9E0A5;" vertex="1" parent="Q6MB9IUESqZdPa3uwSPV-1">
          <mxGeometry x="188.5" y="155" width="70" height="70" as="geometry" />
        </mxCell>
        <mxCell id="x7P05nAlflOO5RNB0M42-47" style="edgeStyle=orthogonalEdgeStyle;rounded=0;orthogonalLoop=1;jettySize=auto;html=1;entryX=0.5;entryY=1;entryDx=0;entryDy=0;" edge="1" parent="Q6MB9IUESqZdPa3uwSPV-1" source="x7P05nAlflOO5RNB0M42-43" target="x7P05nAlflOO5RNB0M42-49">
          <mxGeometry relative="1" as="geometry">
            <mxPoint x="109.5" y="350" as="targetPoint" />
          </mxGeometry>
        </mxCell>
        <mxCell id="x7P05nAlflOO5RNB0M42-52" value="no" style="edgeLabel;html=1;align=center;verticalAlign=middle;resizable=0;points=[];" vertex="1" connectable="0" parent="x7P05nAlflOO5RNB0M42-47">
          <mxGeometry x="-0.1873" y="1" relative="1" as="geometry">
            <mxPoint as="offset" />
          </mxGeometry>
        </mxCell>
        <mxCell id="x7P05nAlflOO5RNB0M42-43" value="" style="rhombus;whiteSpace=wrap;html=1;fillColor=#ffff88;strokeColor=#36393d;" vertex="1" parent="Q6MB9IUESqZdPa3uwSPV-1">
          <mxGeometry x="201" y="410" width="45" height="40" as="geometry" />
        </mxCell>
        <mxCell id="x7P05nAlflOO5RNB0M42-49" value="Fin" style="ellipse;whiteSpace=wrap;html=1;aspect=fixed;fillColor=#f8cecc;strokeColor=#b85450;" vertex="1" parent="Q6MB9IUESqZdPa3uwSPV-1">
          <mxGeometry x="199" y="308" width="50" height="50" as="geometry" />
        </mxCell>
        <mxCell id="x7P05nAlflOO5RNB0M42-55" value="&lt;span style=&quot;color: rgb(0 , 0 , 0) ; font-family: &amp;quot;helvetica&amp;quot; ; font-size: 12px ; font-style: normal ; font-weight: 400 ; letter-spacing: normal ; text-indent: 0px ; text-transform: none ; word-spacing: 0px ; background-color: rgb(248 , 249 , 250) ; display: inline ; float: none&quot;&gt;Cliente posee inforamacio/ informacion es correcta.&lt;/span&gt;" style="text;whiteSpace=wrap;html=1;align=center;" vertex="1" parent="Q6MB9IUESqZdPa3uwSPV-1">
          <mxGeometry x="20" y="410" width="181" height="50" as="geometry" />
        </mxCell>
        <mxCell id="x7P05nAlflOO5RNB0M42-73" value="Fin" style="ellipse;whiteSpace=wrap;html=1;aspect=fixed;fillColor=#f8cecc;strokeColor=#b85450;" vertex="1" parent="Q6MB9IUESqZdPa3uwSPV-1">
          <mxGeometry x="60" y="65" width="50" height="50" as="geometry" />
        </mxCell>
        <mxCell id="x7P05nAlflOO5RNB0M42-82" style="edgeStyle=orthogonalEdgeStyle;rounded=0;orthogonalLoop=1;jettySize=auto;html=1;entryX=0.524;entryY=1.059;entryDx=0;entryDy=0;entryPerimeter=0;" edge="1" parent="Q6MB9IUESqZdPa3uwSPV-1" source="x7P05nAlflOO5RNB0M42-80" target="x7P05nAlflOO5RNB0M42-83">
          <mxGeometry relative="1" as="geometry">
            <mxPoint x="211" y="620" as="targetPoint" />
          </mxGeometry>
        </mxCell>
        <mxCell id="x7P05nAlflOO5RNB0M42-84" value="No" style="edgeLabel;html=1;align=center;verticalAlign=middle;resizable=0;points=[];" vertex="1" connectable="0" parent="x7P05nAlflOO5RNB0M42-82">
          <mxGeometry x="-0.0626" relative="1" as="geometry">
            <mxPoint as="offset" />
          </mxGeometry>
        </mxCell>
        <mxCell id="x7P05nAlflOO5RNB0M42-80" value="" style="rhombus;whiteSpace=wrap;html=1;fillColor=#ffff88;strokeColor=#36393d;" vertex="1" parent="Q6MB9IUESqZdPa3uwSPV-1">
          <mxGeometry x="200.5" y="680" width="45" height="40" as="geometry" />
        </mxCell>
        <mxCell id="x7P05nAlflOO5RNB0M42-81" value="&lt;span style=&quot;color: rgb(0 , 0 , 0) ; font-family: &amp;quot;helvetica&amp;quot; ; font-size: 12px ; font-style: normal ; font-weight: 400 ; letter-spacing: normal ; text-indent: 0px ; text-transform: none ; word-spacing: 0px ; background-color: rgb(248 , 249 , 250) ; display: inline ; float: none&quot;&gt;Cliente confirma monto y metodo de pago&lt;/span&gt;" style="text;whiteSpace=wrap;html=1;align=center;" vertex="1" parent="Q6MB9IUESqZdPa3uwSPV-1">
          <mxGeometry x="50" y="680" width="129.5" height="46" as="geometry" />
        </mxCell>
        <mxCell id="x7P05nAlflOO5RNB0M42-83" value="Fin" style="ellipse;whiteSpace=wrap;html=1;aspect=fixed;fillColor=#f8cecc;strokeColor=#b85450;" vertex="1" parent="Q6MB9IUESqZdPa3uwSPV-1">
          <mxGeometry x="196" y="560" width="50" height="50" as="geometry" />
        </mxCell>
        <mxCell id="x7P05nAlflOO5RNB0M42-91" value="Fin" style="ellipse;whiteSpace=wrap;html=1;aspect=fixed;fillColor=#f8cecc;strokeColor=#b85450;" vertex="1" parent="Q6MB9IUESqZdPa3uwSPV-1">
          <mxGeometry x="71.5" y="864" width="50" height="50" as="geometry" />
        </mxCell>
        <mxCell id="Q6MB9IUESqZdPa3uwSPV-2" value="Sistema" style="swimlane;whiteSpace=wrap;html=1;startSize=23;fillColor=#D630FF;" parent="WIyWlLk6GJQsqaUBKTNV-1" vertex="1">
          <mxGeometry x="-250" y="10" width="250" height="960" as="geometry" />
        </mxCell>
        <mxCell id="x7P05nAlflOO5RNB0M42-20" value="registra pedido." style="shape=parallelogram;perimeter=parallelogramPerimeter;whiteSpace=wrap;html=1;fixedSize=1;" vertex="1" parent="Q6MB9IUESqZdPa3uwSPV-2">
          <mxGeometry x="31" y="280" width="190" height="60" as="geometry" />
        </mxCell>
        <mxCell id="x7P05nAlflOO5RNB0M42-39" value="Se Registran datos &lt;br&gt;del cliaente" style="shape=parallelogram;perimeter=parallelogramPerimeter;whiteSpace=wrap;html=1;fixedSize=1;" vertex="1" parent="Q6MB9IUESqZdPa3uwSPV-2">
          <mxGeometry x="41" y="490" width="180" height="60" as="geometry" />
        </mxCell>
        <mxCell id="x7P05nAlflOO5RNB0M42-71" style="edgeStyle=orthogonalEdgeStyle;rounded=0;orthogonalLoop=1;jettySize=auto;html=1;entryX=0.528;entryY=1.043;entryDx=0;entryDy=0;entryPerimeter=0;" edge="1" parent="Q6MB9IUESqZdPa3uwSPV-2" source="x7P05nAlflOO5RNB0M42-7" target="x7P05nAlflOO5RNB0M42-70">
          <mxGeometry relative="1" as="geometry" />
        </mxCell>
        <mxCell id="x7P05nAlflOO5RNB0M42-75" value="no" style="edgeLabel;html=1;align=center;verticalAlign=middle;resizable=0;points=[];" vertex="1" connectable="0" parent="x7P05nAlflOO5RNB0M42-71">
          <mxGeometry x="-0.3508" y="-2" relative="1" as="geometry">
            <mxPoint as="offset" />
          </mxGeometry>
        </mxCell>
        <mxCell id="x7P05nAlflOO5RNB0M42-7" value="" style="rhombus;whiteSpace=wrap;html=1;fillColor=#ffff88;strokeColor=#36393d;" vertex="1" parent="Q6MB9IUESqZdPa3uwSPV-2">
          <mxGeometry x="103.5" y="170" width="45" height="40" as="geometry" />
        </mxCell>
        <mxCell id="x7P05nAlflOO5RNB0M42-11" style="edgeStyle=orthogonalEdgeStyle;rounded=0;orthogonalLoop=1;jettySize=auto;html=1;entryX=0.5;entryY=0;entryDx=0;entryDy=0;" edge="1" parent="Q6MB9IUESqZdPa3uwSPV-2" source="x7P05nAlflOO5RNB0M42-7" target="x7P05nAlflOO5RNB0M42-20">
          <mxGeometry relative="1" as="geometry">
            <mxPoint x="-10" y="300" as="targetPoint" />
          </mxGeometry>
        </mxCell>
        <mxCell id="x7P05nAlflOO5RNB0M42-67" value="si" style="edgeLabel;html=1;align=center;verticalAlign=middle;resizable=0;points=[];" vertex="1" connectable="0" parent="x7P05nAlflOO5RNB0M42-11">
          <mxGeometry x="0.005" y="1" relative="1" as="geometry">
            <mxPoint as="offset" />
          </mxGeometry>
        </mxCell>
        <mxCell id="x7P05nAlflOO5RNB0M42-70" value="ingresa alerta o inventario" style="shape=parallelogram;perimeter=parallelogramPerimeter;whiteSpace=wrap;html=1;fixedSize=1;" vertex="1" parent="Q6MB9IUESqZdPa3uwSPV-2">
          <mxGeometry x="26" y="60" width="190" height="60" as="geometry" />
        </mxCell>
        <mxCell id="x7P05nAlflOO5RNB0M42-88" value="Genera voucher" style="shape=parallelogram;perimeter=parallelogramPerimeter;whiteSpace=wrap;html=1;fixedSize=1;" vertex="1" parent="Q6MB9IUESqZdPa3uwSPV-2">
          <mxGeometry x="40" y="860" width="193" height="60" as="geometry" />
        </mxCell>
        <mxCell id="x7P05nAlflOO5RNB0M42-4" style="edgeStyle=orthogonalEdgeStyle;rounded=0;orthogonalLoop=1;jettySize=auto;html=1;exitX=1;exitY=0.5;exitDx=0;exitDy=0;entryX=0;entryY=0.5;entryDx=0;entryDy=0;" edge="1" parent="WIyWlLk6GJQsqaUBKTNV-1" source="x7P05nAlflOO5RNB0M42-1" target="x7P05nAlflOO5RNB0M42-3">
          <mxGeometry relative="1" as="geometry">
            <Array as="points">
              <mxPoint x="-780" y="200" />
              <mxPoint x="-780" y="200" />
            </Array>
          </mxGeometry>
        </mxCell>
        <mxCell id="x7P05nAlflOO5RNB0M42-42" value="" style="endArrow=classic;startArrow=classic;html=1;rounded=0;exitX=0;exitY=0.5;exitDx=0;exitDy=0;entryX=1;entryY=0.5;entryDx=0;entryDy=0;" edge="1" parent="WIyWlLk6GJQsqaUBKTNV-1" source="x7P05nAlflOO5RNB0M42-34" target="x7P05nAlflOO5RNB0M42-43">
          <mxGeometry width="50" height="50" relative="1" as="geometry">
            <mxPoint x="-400" y="450" as="sourcePoint" />
            <mxPoint x="-670" y="440" as="targetPoint" />
            <Array as="points">
              <mxPoint x="-590" y="440" />
            </Array>
          </mxGeometry>
        </mxCell>
        <mxCell id="x7P05nAlflOO5RNB0M42-46" value="solicita informacion&lt;br&gt;para &lt;br&gt;facturacion o boleta" style="edgeLabel;html=1;align=center;verticalAlign=middle;resizable=0;points=[];" vertex="1" connectable="0" parent="x7P05nAlflOO5RNB0M42-42">
          <mxGeometry x="-0.0108" y="-3" relative="1" as="geometry">
            <mxPoint x="73" y="3" as="offset" />
          </mxGeometry>
        </mxCell>
        <mxCell id="x7P05nAlflOO5RNB0M42-53" style="edgeStyle=orthogonalEdgeStyle;rounded=0;orthogonalLoop=1;jettySize=auto;html=1;exitX=0.5;exitY=1;exitDx=0;exitDy=0;entryX=0;entryY=0.5;entryDx=0;entryDy=0;" edge="1" parent="WIyWlLk6GJQsqaUBKTNV-1" source="x7P05nAlflOO5RNB0M42-43" target="x7P05nAlflOO5RNB0M42-39">
          <mxGeometry relative="1" as="geometry">
            <mxPoint x="-170" y="530" as="targetPoint" />
            <Array as="points">
              <mxPoint x="-826" y="530" />
            </Array>
          </mxGeometry>
        </mxCell>
        <mxCell id="x7P05nAlflOO5RNB0M42-54" value="Si" style="edgeLabel;html=1;align=center;verticalAlign=middle;resizable=0;points=[];" vertex="1" connectable="0" parent="x7P05nAlflOO5RNB0M42-53">
          <mxGeometry x="-0.7324" y="1" relative="1" as="geometry">
            <mxPoint y="1" as="offset" />
          </mxGeometry>
        </mxCell>
        <mxCell id="x7P05nAlflOO5RNB0M42-64" style="edgeStyle=orthogonalEdgeStyle;rounded=0;orthogonalLoop=1;jettySize=auto;html=1;entryX=1;entryY=0.5;entryDx=0;entryDy=0;" edge="1" parent="WIyWlLk6GJQsqaUBKTNV-1" source="x7P05nAlflOO5RNB0M42-39" target="x7P05nAlflOO5RNB0M42-65">
          <mxGeometry relative="1" as="geometry">
            <mxPoint x="-360" y="640" as="targetPoint" />
            <Array as="points">
              <mxPoint x="-90" y="710" />
            </Array>
          </mxGeometry>
        </mxCell>
        <mxCell id="x7P05nAlflOO5RNB0M42-68" style="edgeStyle=orthogonalEdgeStyle;rounded=0;orthogonalLoop=1;jettySize=auto;html=1;entryX=0;entryY=0.5;entryDx=0;entryDy=0;" edge="1" parent="WIyWlLk6GJQsqaUBKTNV-1" source="x7P05nAlflOO5RNB0M42-3" target="x7P05nAlflOO5RNB0M42-7">
          <mxGeometry relative="1" as="geometry" />
        </mxCell>
        <mxCell id="x7P05nAlflOO5RNB0M42-76" value="Verifica inventario" style="edgeLabel;html=1;align=center;verticalAlign=middle;resizable=0;points=[];" vertex="1" connectable="0" parent="x7P05nAlflOO5RNB0M42-68">
          <mxGeometry x="-0.3717" y="-3" relative="1" as="geometry">
            <mxPoint as="offset" />
          </mxGeometry>
        </mxCell>
        <mxCell id="x7P05nAlflOO5RNB0M42-74" style="edgeStyle=orthogonalEdgeStyle;rounded=0;orthogonalLoop=1;jettySize=auto;html=1;" edge="1" parent="WIyWlLk6GJQsqaUBKTNV-1" source="x7P05nAlflOO5RNB0M42-70" target="x7P05nAlflOO5RNB0M42-73">
          <mxGeometry relative="1" as="geometry" />
        </mxCell>
        <mxCell id="x7P05nAlflOO5RNB0M42-77" style="edgeStyle=orthogonalEdgeStyle;rounded=0;orthogonalLoop=1;jettySize=auto;html=1;entryX=0.5;entryY=0;entryDx=0;entryDy=0;" edge="1" parent="WIyWlLk6GJQsqaUBKTNV-1" source="x7P05nAlflOO5RNB0M42-20" target="x7P05nAlflOO5RNB0M42-34">
          <mxGeometry relative="1" as="geometry" />
        </mxCell>
        <mxCell id="x7P05nAlflOO5RNB0M42-78" style="edgeStyle=orthogonalEdgeStyle;rounded=0;orthogonalLoop=1;jettySize=auto;html=1;entryX=1;entryY=0.5;entryDx=0;entryDy=0;" edge="1" parent="WIyWlLk6GJQsqaUBKTNV-1" source="x7P05nAlflOO5RNB0M42-65" target="x7P05nAlflOO5RNB0M42-80">
          <mxGeometry relative="1" as="geometry">
            <mxPoint x="-750" y="600" as="targetPoint" />
          </mxGeometry>
        </mxCell>
        <mxCell id="x7P05nAlflOO5RNB0M42-79" value="Solicita informacion" style="edgeLabel;html=1;align=center;verticalAlign=middle;resizable=0;points=[];" vertex="1" connectable="0" parent="x7P05nAlflOO5RNB0M42-78">
          <mxGeometry x="-0.2369" y="-1" relative="1" as="geometry">
            <mxPoint x="36" y="1" as="offset" />
          </mxGeometry>
        </mxCell>
        <mxCell id="x7P05nAlflOO5RNB0M42-85" style="edgeStyle=orthogonalEdgeStyle;rounded=0;orthogonalLoop=1;jettySize=auto;html=1;" edge="1" parent="WIyWlLk6GJQsqaUBKTNV-1" source="x7P05nAlflOO5RNB0M42-80" target="x7P05nAlflOO5RNB0M42-86">
          <mxGeometry relative="1" as="geometry">
            <mxPoint x="-500" y="830" as="targetPoint" />
            <Array as="points">
              <mxPoint x="-827" y="830" />
            </Array>
          </mxGeometry>
        </mxCell>
        <mxCell id="x7P05nAlflOO5RNB0M42-87" style="edgeStyle=orthogonalEdgeStyle;rounded=0;orthogonalLoop=1;jettySize=auto;html=1;entryX=0.5;entryY=0;entryDx=0;entryDy=0;" edge="1" parent="WIyWlLk6GJQsqaUBKTNV-1" source="x7P05nAlflOO5RNB0M42-86" target="x7P05nAlflOO5RNB0M42-88">
          <mxGeometry relative="1" as="geometry">
            <mxPoint x="-200" y="830" as="targetPoint" />
          </mxGeometry>
        </mxCell>
        <mxCell id="x7P05nAlflOO5RNB0M42-89" style="edgeStyle=orthogonalEdgeStyle;rounded=0;orthogonalLoop=1;jettySize=auto;html=1;entryX=1;entryY=0.5;entryDx=0;entryDy=0;" edge="1" parent="WIyWlLk6GJQsqaUBKTNV-1" source="x7P05nAlflOO5RNB0M42-88" target="x7P05nAlflOO5RNB0M42-91">
          <mxGeometry relative="1" as="geometry">
            <mxPoint x="-910" y="900" as="targetPoint" />
          </mxGeometry>
        </mxCell>
        <mxCell id="x7P05nAlflOO5RNB0M42-90" value="Entrega Vaucher" style="edgeLabel;html=1;align=center;verticalAlign=middle;resizable=0;points=[];" vertex="1" connectable="0" parent="x7P05nAlflOO5RNB0M42-89">
          <mxGeometry x="-0.3037" y="-4" relative="1" as="geometry">
            <mxPoint x="-3" as="offset" />
          </mxGeometry>
        </mxCell>
      </root>
    </mxGraphModel>
  </diagram>
</mxfile>
